<mxfile host="app.diagrams.net" modified="2023-08-13T09:23:03.078Z" agent="Mozilla/5.0 (Macintosh; Intel Mac OS X 10_15_7) AppleWebKit/537.36 (KHTML, like Gecko) Chrome/115.0.0.0 Safari/537.36" etag="ZQC6DJ6hSpugaB6s2Anp" version="21.2.1" type="github">
  <diagram name="第 1 页" id="4dHVfZL8O17O42N6KE4Y">
    <mxGraphModel dx="954" dy="535" grid="1" gridSize="10" guides="1" tooltips="1" connect="1" arrows="1" fold="1" page="1" pageScale="1" pageWidth="827" pageHeight="1169" math="0" shadow="0">
      <root>
        <mxCell id="0" />
        <mxCell id="1" parent="0" />
        <mxCell id="xEn6napEUVvWO5qlfONJ-1" value="snort_main_t" style="swimlane;fontStyle=1;align=center;verticalAlign=top;childLayout=stackLayout;horizontal=1;startSize=26;horizontalStack=0;resizeParent=1;resizeParentMax=0;resizeLast=0;collapsible=1;marginBottom=0;whiteSpace=wrap;html=1;rounded=1;" vertex="1" parent="1">
          <mxGeometry x="80" y="100" width="200" height="282" as="geometry" />
        </mxCell>
        <mxCell id="xEn6napEUVvWO5qlfONJ-2" value="clib_socket_t *listener;" style="text;strokeColor=default;fillColor=default;align=left;verticalAlign=top;spacingLeft=4;spacingRight=4;overflow=hidden;rotatable=0;points=[[0,0.5],[1,0.5]];portConstraint=eastwest;whiteSpace=wrap;html=1;rounded=1;" vertex="1" parent="xEn6napEUVvWO5qlfONJ-1">
          <mxGeometry y="26" width="200" height="26" as="geometry" />
        </mxCell>
        <mxCell id="xEn6napEUVvWO5qlfONJ-4" value="snort_client_t *clients;" style="text;strokeColor=default;fillColor=default;align=left;verticalAlign=top;spacingLeft=4;spacingRight=4;overflow=hidden;rotatable=0;points=[[0,0.5],[1,0.5]];portConstraint=eastwest;whiteSpace=wrap;html=1;rounded=1;" vertex="1" parent="xEn6napEUVvWO5qlfONJ-1">
          <mxGeometry y="52" width="200" height="26" as="geometry" />
        </mxCell>
        <mxCell id="xEn6napEUVvWO5qlfONJ-8" style="edgeStyle=orthogonalEdgeStyle;rounded=0;orthogonalLoop=1;jettySize=auto;html=1;exitX=1;exitY=0.5;exitDx=0;exitDy=0;" edge="1" parent="xEn6napEUVvWO5qlfONJ-1" source="xEn6napEUVvWO5qlfONJ-5">
          <mxGeometry relative="1" as="geometry">
            <mxPoint x="200" y="91" as="targetPoint" />
          </mxGeometry>
        </mxCell>
        <mxCell id="xEn6napEUVvWO5qlfONJ-5" value="snort_instance_t *instances;" style="text;strokeColor=default;fillColor=default;align=left;verticalAlign=top;spacingLeft=4;spacingRight=4;overflow=hidden;rotatable=0;points=[[0,0.5],[1,0.5]];portConstraint=eastwest;whiteSpace=wrap;html=1;rounded=1;" vertex="1" parent="xEn6napEUVvWO5qlfONJ-1">
          <mxGeometry y="78" width="200" height="26" as="geometry" />
        </mxCell>
        <mxCell id="xEn6napEUVvWO5qlfONJ-6" value="uword *instance_by_name;" style="text;strokeColor=default;fillColor=default;align=left;verticalAlign=top;spacingLeft=4;spacingRight=4;overflow=hidden;rotatable=0;points=[[0,0.5],[1,0.5]];portConstraint=eastwest;whiteSpace=wrap;html=1;rounded=1;" vertex="1" parent="xEn6napEUVvWO5qlfONJ-1">
          <mxGeometry y="104" width="200" height="26" as="geometry" />
        </mxCell>
        <mxCell id="xEn6napEUVvWO5qlfONJ-7" value="u32 *instance_by_sw_if_index;" style="text;strokeColor=default;fillColor=default;align=left;verticalAlign=top;spacingLeft=4;spacingRight=4;overflow=hidden;rotatable=0;points=[[0,0.5],[1,0.5]];portConstraint=eastwest;whiteSpace=wrap;html=1;rounded=1;" vertex="1" parent="xEn6napEUVvWO5qlfONJ-1">
          <mxGeometry y="130" width="200" height="26" as="geometry" />
        </mxCell>
        <mxCell id="xEn6napEUVvWO5qlfONJ-9" value="u8 **buffer_pool_base_addrs;" style="text;strokeColor=default;fillColor=default;align=left;verticalAlign=top;spacingLeft=4;spacingRight=4;overflow=hidden;rotatable=0;points=[[0,0.5],[1,0.5]];portConstraint=eastwest;whiteSpace=wrap;html=1;rounded=1;" vertex="1" parent="xEn6napEUVvWO5qlfONJ-1">
          <mxGeometry y="156" width="200" height="26" as="geometry" />
        </mxCell>
        <mxCell id="xEn6napEUVvWO5qlfONJ-10" value="snort_per_thread_data_t *per_thread_data;" style="text;strokeColor=default;fillColor=default;align=left;verticalAlign=top;spacingLeft=4;spacingRight=4;overflow=hidden;rotatable=0;points=[[0,0.5],[1,0.5]];portConstraint=eastwest;whiteSpace=wrap;html=1;rounded=1;" vertex="1" parent="xEn6napEUVvWO5qlfONJ-1">
          <mxGeometry y="182" width="200" height="48" as="geometry" />
        </mxCell>
        <mxCell id="xEn6napEUVvWO5qlfONJ-11" value="u32 input_mode;" style="text;strokeColor=default;fillColor=default;align=left;verticalAlign=top;spacingLeft=4;spacingRight=4;overflow=hidden;rotatable=0;points=[[0,0.5],[1,0.5]];portConstraint=eastwest;whiteSpace=wrap;html=1;rounded=1;" vertex="1" parent="xEn6napEUVvWO5qlfONJ-1">
          <mxGeometry y="230" width="200" height="26" as="geometry" />
        </mxCell>
        <mxCell id="xEn6napEUVvWO5qlfONJ-12" value="u8 *socket_name;" style="text;strokeColor=default;fillColor=default;align=left;verticalAlign=top;spacingLeft=4;spacingRight=4;overflow=hidden;rotatable=0;points=[[0,0.5],[1,0.5]];portConstraint=eastwest;whiteSpace=wrap;html=1;rounded=1;" vertex="1" parent="xEn6napEUVvWO5qlfONJ-1">
          <mxGeometry y="256" width="200" height="26" as="geometry" />
        </mxCell>
        <mxCell id="xEn6napEUVvWO5qlfONJ-13" value="snort_per_thread_data_t" style="swimlane;fontStyle=1;align=center;verticalAlign=top;childLayout=stackLayout;horizontal=1;startSize=26;horizontalStack=0;resizeParent=1;resizeParentMax=0;resizeLast=0;collapsible=1;marginBottom=0;whiteSpace=wrap;html=1;" vertex="1" parent="1">
          <mxGeometry x="320" y="660" width="160" height="52" as="geometry" />
        </mxCell>
        <mxCell id="xEn6napEUVvWO5qlfONJ-14" value="void *interrupts;" style="text;strokeColor=none;fillColor=none;align=left;verticalAlign=top;spacingLeft=4;spacingRight=4;overflow=hidden;rotatable=0;points=[[0,0.5],[1,0.5]];portConstraint=eastwest;whiteSpace=wrap;html=1;" vertex="1" parent="xEn6napEUVvWO5qlfONJ-13">
          <mxGeometry y="26" width="160" height="26" as="geometry" />
        </mxCell>
        <mxCell id="xEn6napEUVvWO5qlfONJ-19" value="snort_qpair_t&amp;nbsp;" style="swimlane;fontStyle=1;align=center;verticalAlign=top;childLayout=stackLayout;horizontal=1;startSize=26;horizontalStack=0;resizeParent=1;resizeParentMax=0;resizeLast=0;collapsible=1;marginBottom=0;whiteSpace=wrap;html=1;rounded=1;" vertex="1" parent="1">
          <mxGeometry x="660" y="10" width="260" height="450" as="geometry" />
        </mxCell>
        <mxCell id="xEn6napEUVvWO5qlfONJ-20" value="u8 log2_queue_size;" style="text;strokeColor=default;fillColor=default;align=left;verticalAlign=top;spacingLeft=4;spacingRight=4;overflow=hidden;rotatable=0;points=[[0,0.5],[1,0.5]];portConstraint=eastwest;whiteSpace=wrap;html=1;rounded=1;" vertex="1" parent="xEn6napEUVvWO5qlfONJ-19">
          <mxGeometry y="26" width="260" height="26" as="geometry" />
        </mxCell>
        <mxCell id="xEn6napEUVvWO5qlfONJ-21" value="&amp;nbsp;daq_vpp_desc_t *descriptors;" style="text;strokeColor=default;fillColor=default;align=left;verticalAlign=top;spacingLeft=4;spacingRight=4;overflow=hidden;rotatable=0;points=[[0,0.5],[1,0.5]];portConstraint=eastwest;whiteSpace=wrap;html=1;rounded=1;" vertex="1" parent="xEn6napEUVvWO5qlfONJ-19">
          <mxGeometry y="52" width="260" height="26" as="geometry" />
        </mxCell>
        <mxCell id="xEn6napEUVvWO5qlfONJ-23" value="&lt;div&gt;volatile u32 *enq_head;&lt;/div&gt;&lt;div&gt;&amp;nbsp; volatile u32 *deq_head;&lt;/div&gt;&lt;div&gt;&amp;nbsp; volatile u32 *enq_ring;&lt;/div&gt;&lt;div&gt;&amp;nbsp; volatile u32 *deq_ring;&lt;/div&gt;" style="text;strokeColor=default;fillColor=default;align=left;verticalAlign=top;spacingLeft=4;spacingRight=4;overflow=hidden;rotatable=0;points=[[0,0.5],[1,0.5]];portConstraint=eastwest;whiteSpace=wrap;html=1;rounded=1;" vertex="1" parent="xEn6napEUVvWO5qlfONJ-19">
          <mxGeometry y="78" width="260" height="72" as="geometry" />
        </mxCell>
        <mxCell id="xEn6napEUVvWO5qlfONJ-24" value="u32 next_desc;" style="text;strokeColor=default;fillColor=default;align=left;verticalAlign=top;spacingLeft=4;spacingRight=4;overflow=hidden;rotatable=0;points=[[0,0.5],[1,0.5]];portConstraint=eastwest;whiteSpace=wrap;html=1;rounded=1;" vertex="1" parent="xEn6napEUVvWO5qlfONJ-19">
          <mxGeometry y="150" width="260" height="26" as="geometry" />
        </mxCell>
        <mxCell id="xEn6napEUVvWO5qlfONJ-25" value="int enq_fd, deq_fd;" style="text;strokeColor=default;fillColor=default;align=left;verticalAlign=top;spacingLeft=4;spacingRight=4;overflow=hidden;rotatable=0;points=[[0,0.5],[1,0.5]];portConstraint=eastwest;whiteSpace=wrap;html=1;rounded=1;" vertex="1" parent="xEn6napEUVvWO5qlfONJ-19">
          <mxGeometry y="176" width="260" height="26" as="geometry" />
        </mxCell>
        <mxCell id="xEn6napEUVvWO5qlfONJ-26" value="&amp;nbsp;u32 deq_fd_file_index;" style="text;strokeColor=default;fillColor=default;align=left;verticalAlign=top;spacingLeft=4;spacingRight=4;overflow=hidden;rotatable=0;points=[[0,0.5],[1,0.5]];portConstraint=eastwest;whiteSpace=wrap;html=1;rounded=1;" vertex="1" parent="xEn6napEUVvWO5qlfONJ-19">
          <mxGeometry y="202" width="260" height="26" as="geometry" />
        </mxCell>
        <mxCell id="xEn6napEUVvWO5qlfONJ-27" value="u32 *buffer_indices;" style="text;strokeColor=default;fillColor=default;align=left;verticalAlign=top;spacingLeft=4;spacingRight=4;overflow=hidden;rotatable=0;points=[[0,0.5],[1,0.5]];portConstraint=eastwest;whiteSpace=wrap;html=1;rounded=1;" vertex="1" parent="xEn6napEUVvWO5qlfONJ-19">
          <mxGeometry y="228" width="260" height="32" as="geometry" />
        </mxCell>
        <mxCell id="xEn6napEUVvWO5qlfONJ-28" value="&amp;nbsp;u16 *next_indices;" style="text;strokeColor=default;fillColor=default;align=left;verticalAlign=top;spacingLeft=4;spacingRight=4;overflow=hidden;rotatable=0;points=[[0,0.5],[1,0.5]];portConstraint=eastwest;whiteSpace=wrap;html=1;rounded=1;" vertex="1" parent="xEn6napEUVvWO5qlfONJ-19">
          <mxGeometry y="260" width="260" height="26" as="geometry" />
        </mxCell>
        <mxCell id="xEn6napEUVvWO5qlfONJ-29" value="u32 *freelist;" style="text;strokeColor=default;fillColor=default;align=left;verticalAlign=top;spacingLeft=4;spacingRight=4;overflow=hidden;rotatable=0;points=[[0,0.5],[1,0.5]];portConstraint=eastwest;whiteSpace=wrap;html=1;rounded=1;" vertex="1" parent="xEn6napEUVvWO5qlfONJ-19">
          <mxGeometry y="286" width="260" height="26" as="geometry" />
        </mxCell>
        <mxCell id="xEn6napEUVvWO5qlfONJ-59" value="u32 ready;" style="text;strokeColor=default;fillColor=default;align=left;verticalAlign=top;spacingLeft=4;spacingRight=4;overflow=hidden;rotatable=0;points=[[0,0.5],[1,0.5]];portConstraint=eastwest;whiteSpace=wrap;html=1;rounded=1;" vertex="1" parent="xEn6napEUVvWO5qlfONJ-19">
          <mxGeometry y="312" width="260" height="26" as="geometry" />
        </mxCell>
        <mxCell id="xEn6napEUVvWO5qlfONJ-60" value="u32 n_pending;" style="text;strokeColor=default;fillColor=default;align=left;verticalAlign=top;spacingLeft=4;spacingRight=4;overflow=hidden;rotatable=0;points=[[0,0.5],[1,0.5]];portConstraint=eastwest;whiteSpace=wrap;html=1;rounded=1;" vertex="1" parent="xEn6napEUVvWO5qlfONJ-19">
          <mxGeometry y="338" width="260" height="26" as="geometry" />
        </mxCell>
        <mxCell id="xEn6napEUVvWO5qlfONJ-61" value="u16 pending_nexts[VLIB_FRAME_SIZE];" style="text;strokeColor=default;fillColor=default;align=left;verticalAlign=top;spacingLeft=4;spacingRight=4;overflow=hidden;rotatable=0;points=[[0,0.5],[1,0.5]];portConstraint=eastwest;whiteSpace=wrap;html=1;rounded=1;" vertex="1" parent="xEn6napEUVvWO5qlfONJ-19">
          <mxGeometry y="364" width="260" height="26" as="geometry" />
        </mxCell>
        <mxCell id="xEn6napEUVvWO5qlfONJ-62" value="&amp;nbsp; u32 pending_buffers[VLIB_FRAME_SIZE];" style="text;strokeColor=default;fillColor=default;align=left;verticalAlign=top;spacingLeft=4;spacingRight=4;overflow=hidden;rotatable=0;points=[[0,0.5],[1,0.5]];portConstraint=eastwest;whiteSpace=wrap;html=1;rounded=1;" vertex="1" parent="xEn6napEUVvWO5qlfONJ-19">
          <mxGeometry y="390" width="260" height="26" as="geometry" />
        </mxCell>
        <mxCell id="xEn6napEUVvWO5qlfONJ-63" value="daq_vpp_desc_t pending_descs[VLIB_FRAME_SIZE];" style="text;strokeColor=default;fillColor=default;align=left;verticalAlign=top;spacingLeft=4;spacingRight=4;overflow=hidden;rotatable=0;points=[[0,0.5],[1,0.5]];portConstraint=eastwest;whiteSpace=wrap;html=1;rounded=1;" vertex="1" parent="xEn6napEUVvWO5qlfONJ-19">
          <mxGeometry y="416" width="260" height="34" as="geometry" />
        </mxCell>
        <mxCell id="xEn6napEUVvWO5qlfONJ-30" value="snort_instance_t" style="swimlane;fontStyle=1;align=center;verticalAlign=top;childLayout=stackLayout;horizontal=1;startSize=26;horizontalStack=0;resizeParent=1;resizeParentMax=0;resizeLast=0;collapsible=1;marginBottom=0;whiteSpace=wrap;html=1;rounded=1;" vertex="1" parent="1">
          <mxGeometry x="360" y="10" width="200" height="262" as="geometry" />
        </mxCell>
        <mxCell id="xEn6napEUVvWO5qlfONJ-31" value="u32 index;" style="text;strokeColor=default;fillColor=default;align=left;verticalAlign=top;spacingLeft=4;spacingRight=4;overflow=hidden;rotatable=0;points=[[0,0.5],[1,0.5]];portConstraint=eastwest;whiteSpace=wrap;html=1;rounded=1;" vertex="1" parent="xEn6napEUVvWO5qlfONJ-30">
          <mxGeometry y="26" width="200" height="26" as="geometry" />
        </mxCell>
        <mxCell id="xEn6napEUVvWO5qlfONJ-32" value="u32 client_index;" style="text;strokeColor=default;fillColor=default;align=left;verticalAlign=top;spacingLeft=4;spacingRight=4;overflow=hidden;rotatable=0;points=[[0,0.5],[1,0.5]];portConstraint=eastwest;whiteSpace=wrap;html=1;rounded=1;" vertex="1" parent="xEn6napEUVvWO5qlfONJ-30">
          <mxGeometry y="52" width="200" height="26" as="geometry" />
        </mxCell>
        <mxCell id="xEn6napEUVvWO5qlfONJ-33" style="edgeStyle=orthogonalEdgeStyle;rounded=0;orthogonalLoop=1;jettySize=auto;html=1;exitX=1;exitY=0.5;exitDx=0;exitDy=0;" edge="1" parent="xEn6napEUVvWO5qlfONJ-30" source="xEn6napEUVvWO5qlfONJ-34">
          <mxGeometry relative="1" as="geometry">
            <mxPoint x="200" y="91" as="targetPoint" />
          </mxGeometry>
        </mxCell>
        <mxCell id="xEn6napEUVvWO5qlfONJ-34" value="void *shm_base;" style="text;strokeColor=default;fillColor=default;align=left;verticalAlign=top;spacingLeft=4;spacingRight=4;overflow=hidden;rotatable=0;points=[[0,0.5],[1,0.5]];portConstraint=eastwest;whiteSpace=wrap;html=1;rounded=1;" vertex="1" parent="xEn6napEUVvWO5qlfONJ-30">
          <mxGeometry y="78" width="200" height="26" as="geometry" />
        </mxCell>
        <mxCell id="xEn6napEUVvWO5qlfONJ-35" value="u32 shm_size;" style="text;strokeColor=default;fillColor=default;align=left;verticalAlign=top;spacingLeft=4;spacingRight=4;overflow=hidden;rotatable=0;points=[[0,0.5],[1,0.5]];portConstraint=eastwest;whiteSpace=wrap;html=1;rounded=1;" vertex="1" parent="xEn6napEUVvWO5qlfONJ-30">
          <mxGeometry y="104" width="200" height="26" as="geometry" />
        </mxCell>
        <mxCell id="xEn6napEUVvWO5qlfONJ-36" value="int shm_fd;" style="text;strokeColor=default;fillColor=default;align=left;verticalAlign=top;spacingLeft=4;spacingRight=4;overflow=hidden;rotatable=0;points=[[0,0.5],[1,0.5]];portConstraint=eastwest;whiteSpace=wrap;html=1;rounded=1;" vertex="1" parent="xEn6napEUVvWO5qlfONJ-30">
          <mxGeometry y="130" width="200" height="26" as="geometry" />
        </mxCell>
        <mxCell id="xEn6napEUVvWO5qlfONJ-37" value="snort_qpair_t *qpairs;" style="text;strokeColor=default;fillColor=default;align=left;verticalAlign=top;spacingLeft=4;spacingRight=4;overflow=hidden;rotatable=0;points=[[0,0.5],[1,0.5]];portConstraint=eastwest;whiteSpace=wrap;html=1;rounded=1;" vertex="1" parent="xEn6napEUVvWO5qlfONJ-30">
          <mxGeometry y="156" width="200" height="26" as="geometry" />
        </mxCell>
        <mxCell id="xEn6napEUVvWO5qlfONJ-38" value="u8 *name;" style="text;strokeColor=default;fillColor=default;align=left;verticalAlign=top;spacingLeft=4;spacingRight=4;overflow=hidden;rotatable=0;points=[[0,0.5],[1,0.5]];portConstraint=eastwest;whiteSpace=wrap;html=1;rounded=1;" vertex="1" parent="xEn6napEUVvWO5qlfONJ-30">
          <mxGeometry y="182" width="200" height="28" as="geometry" />
        </mxCell>
        <mxCell id="xEn6napEUVvWO5qlfONJ-39" value="u32 input_mode;" style="text;strokeColor=default;fillColor=default;align=left;verticalAlign=top;spacingLeft=4;spacingRight=4;overflow=hidden;rotatable=0;points=[[0,0.5],[1,0.5]];portConstraint=eastwest;whiteSpace=wrap;html=1;rounded=1;" vertex="1" parent="xEn6napEUVvWO5qlfONJ-30">
          <mxGeometry y="210" width="200" height="26" as="geometry" />
        </mxCell>
        <mxCell id="xEn6napEUVvWO5qlfONJ-40" value="&amp;nbsp; u8 drop_on_disconnect;" style="text;strokeColor=default;fillColor=default;align=left;verticalAlign=top;spacingLeft=4;spacingRight=4;overflow=hidden;rotatable=0;points=[[0,0.5],[1,0.5]];portConstraint=eastwest;whiteSpace=wrap;html=1;rounded=1;" vertex="1" parent="xEn6napEUVvWO5qlfONJ-30">
          <mxGeometry y="236" width="200" height="26" as="geometry" />
        </mxCell>
        <mxCell id="xEn6napEUVvWO5qlfONJ-41" value="snort_client_msg_queue_elt" style="swimlane;fontStyle=1;align=center;verticalAlign=top;childLayout=stackLayout;horizontal=1;startSize=26;horizontalStack=0;resizeParent=1;resizeParentMax=0;resizeLast=0;collapsible=1;marginBottom=0;whiteSpace=wrap;html=1;rounded=1;" vertex="1" parent="1">
          <mxGeometry x="340" y="532" width="200" height="106" as="geometry" />
        </mxCell>
        <mxCell id="xEn6napEUVvWO5qlfONJ-42" value="daq_vpp_msg_t msg;" style="text;strokeColor=default;fillColor=default;align=left;verticalAlign=top;spacingLeft=4;spacingRight=4;overflow=hidden;rotatable=0;points=[[0,0.5],[1,0.5]];portConstraint=eastwest;whiteSpace=wrap;html=1;rounded=1;" vertex="1" parent="xEn6napEUVvWO5qlfONJ-41">
          <mxGeometry y="26" width="200" height="26" as="geometry" />
        </mxCell>
        <mxCell id="xEn6napEUVvWO5qlfONJ-44" style="edgeStyle=orthogonalEdgeStyle;rounded=0;orthogonalLoop=1;jettySize=auto;html=1;exitX=1;exitY=0.5;exitDx=0;exitDy=0;" edge="1" parent="xEn6napEUVvWO5qlfONJ-41" source="xEn6napEUVvWO5qlfONJ-45">
          <mxGeometry relative="1" as="geometry">
            <mxPoint x="200" y="91" as="targetPoint" />
          </mxGeometry>
        </mxCell>
        <mxCell id="xEn6napEUVvWO5qlfONJ-43" value="int fds[2];" style="text;strokeColor=default;fillColor=default;align=left;verticalAlign=top;spacingLeft=4;spacingRight=4;overflow=hidden;rotatable=0;points=[[0,0.5],[1,0.5]];portConstraint=eastwest;whiteSpace=wrap;html=1;rounded=1;" vertex="1" parent="xEn6napEUVvWO5qlfONJ-41">
          <mxGeometry y="52" width="200" height="28" as="geometry" />
        </mxCell>
        <mxCell id="xEn6napEUVvWO5qlfONJ-45" value="int n_fds;" style="text;strokeColor=default;fillColor=default;align=left;verticalAlign=top;spacingLeft=4;spacingRight=4;overflow=hidden;rotatable=0;points=[[0,0.5],[1,0.5]];portConstraint=eastwest;whiteSpace=wrap;html=1;rounded=1;" vertex="1" parent="xEn6napEUVvWO5qlfONJ-41">
          <mxGeometry y="80" width="200" height="26" as="geometry" />
        </mxCell>
        <mxCell id="xEn6napEUVvWO5qlfONJ-52" value="snort_client_t" style="swimlane;fontStyle=1;align=center;verticalAlign=top;childLayout=stackLayout;horizontal=1;startSize=26;horizontalStack=0;resizeParent=1;resizeParentMax=0;resizeLast=0;collapsible=1;marginBottom=0;whiteSpace=wrap;html=1;rounded=1;" vertex="1" parent="1">
          <mxGeometry x="350" y="370" width="200" height="150" as="geometry" />
        </mxCell>
        <mxCell id="xEn6napEUVvWO5qlfONJ-53" value="clib_socket_t socket;" style="text;strokeColor=default;fillColor=default;align=left;verticalAlign=top;spacingLeft=4;spacingRight=4;overflow=hidden;rotatable=0;points=[[0,0.5],[1,0.5]];portConstraint=eastwest;whiteSpace=wrap;html=1;rounded=1;" vertex="1" parent="xEn6napEUVvWO5qlfONJ-52">
          <mxGeometry y="26" width="200" height="26" as="geometry" />
        </mxCell>
        <mxCell id="xEn6napEUVvWO5qlfONJ-54" style="edgeStyle=orthogonalEdgeStyle;rounded=0;orthogonalLoop=1;jettySize=auto;html=1;exitX=1;exitY=0.5;exitDx=0;exitDy=0;" edge="1" parent="xEn6napEUVvWO5qlfONJ-52" source="xEn6napEUVvWO5qlfONJ-56">
          <mxGeometry relative="1" as="geometry">
            <mxPoint x="200" y="91" as="targetPoint" />
          </mxGeometry>
        </mxCell>
        <mxCell id="xEn6napEUVvWO5qlfONJ-55" value="u32 instance_index;" style="text;strokeColor=default;fillColor=default;align=left;verticalAlign=top;spacingLeft=4;spacingRight=4;overflow=hidden;rotatable=0;points=[[0,0.5],[1,0.5]];portConstraint=eastwest;whiteSpace=wrap;html=1;rounded=1;" vertex="1" parent="xEn6napEUVvWO5qlfONJ-52">
          <mxGeometry y="52" width="200" height="28" as="geometry" />
        </mxCell>
        <mxCell id="xEn6napEUVvWO5qlfONJ-56" value="u32 file_index;" style="text;strokeColor=default;fillColor=default;align=left;verticalAlign=top;spacingLeft=4;spacingRight=4;overflow=hidden;rotatable=0;points=[[0,0.5],[1,0.5]];portConstraint=eastwest;whiteSpace=wrap;html=1;rounded=1;" vertex="1" parent="xEn6napEUVvWO5qlfONJ-52">
          <mxGeometry y="80" width="200" height="26" as="geometry" />
        </mxCell>
        <mxCell id="xEn6napEUVvWO5qlfONJ-57" value="&amp;nbsp;snort_client_msg_queue_elt *msg_queue;" style="text;strokeColor=default;fillColor=default;align=left;verticalAlign=top;spacingLeft=4;spacingRight=4;overflow=hidden;rotatable=0;points=[[0,0.5],[1,0.5]];portConstraint=eastwest;whiteSpace=wrap;html=1;rounded=1;" vertex="1" parent="xEn6napEUVvWO5qlfONJ-52">
          <mxGeometry y="106" width="200" height="44" as="geometry" />
        </mxCell>
        <mxCell id="xEn6napEUVvWO5qlfONJ-58" style="edgeStyle=orthogonalEdgeStyle;rounded=0;orthogonalLoop=1;jettySize=auto;html=1;exitX=1;exitY=0.5;exitDx=0;exitDy=0;entryX=-0.02;entryY=0.05;entryDx=0;entryDy=0;entryPerimeter=0;" edge="1" parent="1" source="xEn6napEUVvWO5qlfONJ-37" target="xEn6napEUVvWO5qlfONJ-19">
          <mxGeometry relative="1" as="geometry" />
        </mxCell>
      </root>
    </mxGraphModel>
  </diagram>
</mxfile>
